# Made in Blockbench 5.0.7
mtllib 1x1_arch.mtl

o mesh
v 0 0.4242326021194458 0.9097697138786316
v 0 0.2598077058792114 0.9696155190467834
v 0 0.08748866617679596 0.9984375
v 0 0.9097697138786316 0.4242326021194458
v 0 0.5757673978805542 0.8222810626029968
v 0 0.709807813167572 0.709807813167572
v 1 0.4242326021194458 0.9097697138786316
v 1.0000000000000002 0.9097697138786316 0.4242326021194458
v 1.0000000000000002 0.5757673978805542 0.8222810626029968
v 1.0000000000000002 0.709807813167572 0.709807813167572
v 0 0 1
v 1 0 1
v 1 0.08748866617679596 0.9984375
v 1 0.2598077058792114 0.9696155190467834
v 0 0.8222810626029968 0.5757673978805542
v 1.0000000000000002 0.8222810626029968 0.5757673978805542
v 0 0.996875 0.08748868107795715
v 1 1 0
v 1.0000000000000002 0.9696155190467834 0.2598077058792114
v 0 1 0
v 0 0.9696155190467834 0.2598077058792114
v 1.0000000000000002 0.996875 0.08748865127563477
v 0.9999999999999999 1 1
v 0 1 1
v 1 0.9999999999999999 0.12495026688424637
v 0 0.9999999999999999 0.1287598293417646
vt 0.0035003093565424415 0.7991264789613355
vt 0.9848712949598768 0.8017019509856975
vt 0.9835146382581454 0.8930354558589937
vt 0.002143652654811019 0.8904599838346317
vt 0.00750643733149879 0.3180343547952095
vt 0.988877422934833 0.3206098268195715
vt 0.988155561052645 0.4511381831528003
vt 0.006784575449310831 0.4485627111284384
vt 0.9872275532442102 0.5773448458388832
vt 0.005856567640875837 0.5747693738145212
vt 0.006784575449310831 0.4485627111284384
vt 0.988155561052645 0.4511381831528003
vt 0.9861215964708742 0.6953950684145733
vt 0.0047506108675398635 0.6928195963902113
vt 0.005856567640875837 0.5747693738145212
vt 0.9872275532442102 0.5773448458388832
vt 0.9896090137645662 0.06294154907290284
vt 0.008238028161232208 0.06036607704854091
vt 0.008250920224082416 0
vt 0.9896219058274165 0.0025754720243619245
vt 0.9893712058990216 0.18972578021082842
vt 0.008000220295687291 0.18715030818646627
vt 0.008238028161232208 0.06036607704854091
vt 0.9896090137645662 0.06294154907290284
vt 0.988877422934833 0.3206098268195715
vt 0.00750643733149879 0.3180343547952095
vt 0.008000220295687291 0.18715030818646627
vt 0.9893712058990216 0.18972578021082842
vt 0.9848712949598768 0.8017019509856975
vt 0.0035003093565424415 0.7991264789613355
vt 0.0047506108675398635 0.6928195963902113
vt 0.9861215964708742 0.6953950684145733
vt 2.7755575615628914e-16 1
vt 1 1
vt 1 2.220446049250313e-16
vt 5.551115123125783e-17 2.220446049250313e-16
vt 0.0007218618821877403 0.9629753752319729
vt 0.9820928477314186 0.9655508381270288
vt 0.9813709856033341 0.9934206875899556
vt 0 0.9908452155655936
vt 0.002143652654811019 0.8904599838346317
vt 0.9835146382581454 0.8930354558589937
vt 0.9820928477314186 0.9655508381270288
vt 0.0007218618821877403 0.9629753752319729
vt 0.0017230288254276621 -0.006261332292281985
vt 0.03350613537794932 0.18376149815715803
vt 1.2242856154127788e-16 1
vt 0.03350613537794932 0.18376149815715803
vt 0.09950040570476175 0.36507915309466354
vt 1.2242856154127788e-16 1
vt 0.0015625000000000222 0.08748866617679618
vt 0 1.0000000000000002
vt 0 0
vt 0.09950040570476175 0.36507915309466354
vt 0.1959775052540063 0.5321823986317264
vt 1.2242856154127788e-16 1
vt 0.1959775052540063 0.5321823986317264
vt 0.3200060818087173 0.6799939181912829
vt 1.2242856154127788e-16 1
vt 0.3200060818087173 0.6799939181912829
vt 0.4678176013682736 0.8040224947459937
vt 1.2242856154127788e-16 1
vt 0.4678176013682736 0.8040224947459937
vt 0.6349208469053367 0.9004995942952384
vt 1.2242856154127788e-16 1
vt 0.6349208469053367 0.9004995942952384
vt 0.816238501842842 0.9664938646220509
vt 1.2242856154127788e-16 1
vt 0.816238501842842 0.9664938646220509
vt 1.0062613487243652 0.9982769711745725
vt 1.2242856154127788e-16 1
vt 0.0017123028006610364 0.08748616226245653
vt 0 0.0000014659915152925862
vt 0.0017123028006608698 1
vt 0.9727551804822495 0.18376149815715825
vt 1.004538287034771 -0.006261332292281985
vt 1.0062613158601985 1
vt 0.906760910155437 0.36507915309466354
vt 0.9727551804822495 0.18376149815715825
vt 1.0062613158601985 1
vt 0.8102838106061925 0.5321823986317268
vt 0.906760910155437 0.36507915309466354
vt 1.0062613158601985 1
vt 0.6862552340514814 0.6799939181912831
vt 0.8102838106061925 0.5321823986317268
vt 1.0062613158601985 1
vt 0.6862552340514814 0.6799939181912831
vt 1.0062613158601985 1
vt 0.5384437144919254 0.804022494745994
vt 0.37134046895486206 0.9004995942952385
vt 0.5384437144919254 0.804022494745994
vt 1.0062613158601985 1
vt 0.19002281401735677 0.966493864622051
vt 0.37134046895486206 0.9004995942952385
vt 1.0062613158601985 1
vt 0 0.9982769711745726
vt 0.19002281401735677 0.966493864622051
vt 1.0062613158601985 1
vt 2.220446049250313e-16 0.8712401692964867
vt 2.7755575615628914e-16 0
vt 1 0
vt 1 0.8750497317480506
vt 1 0.8750497317480506
vt 1 0.9999999984369996
vt 2.7755575615628914e-16 0.9999999984369996
vt 2.220446049250313e-16 0.8712401692964867
vn 0 -0.9396925525232923 -0.3420203308756067
vn 0 -0.49999998350370606 -0.8660254133085782
vn 0 -0.642787564093583 -0.7660444813760086
vn 0 -0.7660444813760086 -0.642787564093583
vn 0 -0.017856608635467106 -0.9998405580531529
vn 0 -0.16496778173042062 -0.9862989561947961
vn 0 -0.3420203308756067 -0.9396925525232923
vn 0 -0.8660254133085782 -0.49999998350370606
vn 0 0 1
vn -1.0638279393575044e-9 -0.9993626896319503 -0.03569614225087151
vn 0 -0.9877177006959171 -0.15624897993897643
vn 1 8.264275603819241e-17 2.4956584311136045e-15
vn 1 1.438245602831803e-16 1.0052166456417843e-15
vn 1 7.931191784185168e-17 4.440892098500562e-15
vn 1 1.896160398908675e-16 7.130171836634112e-16
vn 1 2.5176419791283897e-16 5.646634112362525e-16
vn 1 3.4261880631122113e-16 4.738088028378702e-16
vn 1 4.909725787383799e-16 4.1166064481589875e-16
vn 1 7.831720407167528e-16 3.658691652082115e-16
vn 1 1.8011597412658692e-15 3.2408133771578456e-16
vn -1 0 0
vn -1 0 0
vn -1 0 0
vn -1 0 0
vn -1 0 0
vn -1 0 0
vn -1 0 0
vn -1 0 0
vn -1 0 0
vn 0 1 -1.2743019227251265e-16
vn 0 1 8.885319353928747e-16
usemtl m_287acedb-dfea-9e94-b70e-2770494bf66b
f 8/1/1 4/2/1 21/3/1 19/4/1
f 7/5/2 1/6/2 5/7/2 9/8/2
f 6/9/3 10/10/3 9/11/3 5/12/3
f 15/13/4 16/14/4 10/15/4 6/16/4
f 3/17/5 13/18/5 12/19/5 11/20/5
f 2/21/6 14/22/6 13/23/6 3/24/6
f 1/25/7 7/26/7 14/27/7 2/28/7
f 4/29/8 8/30/8 16/31/8 15/32/8
f 23/33/9 24/34/9 11/35/9 12/36/9
f 22/37/10 17/38/10 20/39/10 18/40/10
f 19/41/11 21/42/11 17/43/11 22/44/11
f 13/45/12 14/46/12 23/47/12
f 14/48/13 7/49/13 23/50/13
f 13/51/14 23/52/14 12/53/14
f 7/54/15 9/55/15 23/56/15
f 9/57/16 10/58/16 23/59/16
f 10/60/17 16/61/17 23/62/17
f 16/63/18 8/64/18 23/65/18
f 8/66/19 19/67/19 23/68/19
f 19/69/20 22/70/20 23/71/20
f 3/72/21 11/73/21 24/74/21
f 2/75/22 3/76/22 24/77/22
f 1/78/23 2/79/23 24/80/23
f 5/81/24 1/82/24 24/83/24
f 6/84/25 5/85/25 24/86/25
f 6/87/26 24/88/26 15/89/26
f 4/90/27 15/91/27 24/92/27
f 21/93/28 4/94/28 24/95/28
f 17/96/29 21/97/29 24/98/29
f 26/99/30 24/100/30 23/101/30 25/102/30
f 25/103/31 18/104/31 20/105/31 26/106/31