# Made in Blockbench 5.0.7
mtllib 2x2_arch_top.mtl

o cylinder
v -4.440892098500626e-16 0.9937499999999995 2.498001805406602e-16
v -4.440892098500626e-16 0.9937499999999995 0.19698250000000023
v -4.440892098500626e-16 0.9231412499999996 0.5833787500000002
v -4.440892098500626e-16 0.7723768749999993 0.9473550000000002
v -4.440892098500626e-16 0.7370274999999993 1.0000000000000002
v -4.440892098500626e-16 1.0017943749999993 1.0000000000000002
v -4.440892098500626e-16 1.0008968749999996 0.7979868750000002
v 0.9999999999999996 0.9232412499999996 1.0000000000000002
v -4.440892098500626e-16 0.9433193749999993 1.0000000000000002
v -4.440892098500626e-16 0.7725056249999993 1.0000000000000002
v 0.9999999999999996 1.0011662499999998 1.0000000000000002
v 0.9999999999999997 0.7389062499999997 1.0000000000000002
v 0.9999999999999996 0.7732743749999995 1.0000000000000002
v 0.9999999999999996 0.9937499999999997 2.498001805406602e-16
v 0.9999999999999996 0.9937499999999997 0.19698250000000023
v 0.9999999999999996 0.9231412499999998 0.5833787500000002
v 0.9999999999999996 0.7723768749999995 0.9473550000000002
v 0.9999999999999996 1.000896875 0.7979868750000002
v -4.440892098500626e-16 0.9232299999999993 1.0000000000000002
v -4.440892098500626e-16 0.9953124999999996 2.498001805406602e-16
v 0.9999999999999996 0.9953124999999998 2.498001805406602e-16
vt 0.25075433296713634 0.9972858425585776
vt 0 0.9008936678025006
vt 0.5171425551863748 0.9007695400593321
vt 0.9967674999999999 0.9922935798880095
vt 0.4766175675615722 0.8891394931328684
vt 0.9905174999999997 0.889248965750993
vt 0.9905174999999997 0.9140290950776422
vt 0.9905174999999997 0.7033313100161396
vt 0.9255801931698248 0.7031724976264657
vt 0.9905174999999997 0.6595692454538014
vt 0.9905174999999997 0.889248965750993
vt 0.4766175675615722 0.8891394931328684
vt 0.9255801931698248 0.7031724976264657
vt 0.9905174999999997 0.7033313100161396
vt 0 0.20201313058477421
vt 0 6.482375192184975e-9
vt 0.9999999999999999 5.854250306747133e-9
vt 0.9999999999999999 0.20201313058477421
vt 0.25075433296713634 0.9972858425585776
vt 0 0.9976202116667381
vt 0 0.9008936678025006
vt 1.0000000000000002 1
vt 0 0.99999999812125
vt 0 0.9473550334706513
vt 1 0.9473550334706513
vt 0 0.9008936678025006
vt 0 0.7147431703643219
vt 0.06534705039118055 0.7136291238693825
vt 0.5171425551863748 0.9007695400593321
vt 0.06534705039118055 0.7136291238693825
vt 0 0.7147431703643219
vt 0 0.6720827924324121
vt 0.7413354640640616 0.9850506124869766
vt 0 0.9800896526444918
vt 0.4766175675615722 0.8891394931328684
vt 0.9905174999999997 0.9140290950776422
vt 0.7413354640640616 0.9850506124869766
vt 0.9905174999999997 0.9140290950776422
vt 0.9905174999999997 0.9861576736111112
vt 1 0.7371118750000003
vt 1 0.9993718750000006
vt 1.1102230246251565e-16 1
vt 1.1102230246251565e-16 0.7352331249999998
vt 1 0.5833789342352083
vt 0 0.5833789342352083
vt 0 0.19698275484415162
vt 1 0.19698275484415162
vt 1 0.9473550334706513
vt 0 0.9473550334706513
vt 0 0.5833789342352083
vt 1 0.5833789342352083
vt 0 0.20201313058477421
vt 0.9999999999999999 0.20201313058477421
vt 0.9999999999999999 0.8030174984375986
vt 0 0.8030174984375986
vt 0 2.5484425014710155e-7
vt 1 2.5484425014710155e-7
vt 1 0.19698275484415162
vt 0 0.19698275484415162
vt 0.9999999999999999 1
vt 0 1
vt 0 0.8030174984375986
vt 0.9999999999999999 0.8030174984375986
vn 1 2.220446049250313e-16 2.719262146893782e-32
vn -1 -2.220446049250313e-16 -2.719262146893782e-32
vn -1 -2.220446049250313e-16 -2.719262146893782e-32
vn -1 -2.220446049250313e-16 -2.719262146893782e-32
vn 0.0006281186771249177 0.9999899337315985 -0.004442735913935584
vn 1 2.220446049250313e-16 2.719262146893782e-32
vn 0.0015597483839534716 -0.8302053939870454 -0.557455443044369
vn 1 2.220446049250313e-16 2.719262146893782e-32
vn 1 2.220446049250313e-16 2.719262146893782e-32
vn -1 -2.220446049250313e-16 -2.719262146893782e-32
vn -1 -2.220446049250313e-16 -2.719262146893782e-32
vn 2.5407181807812022e-33 -1.2246467991473532e-16 1
vn 2.1842761088972202e-16 -0.9837105070103798 -0.17975994658816977
vn 2.051423709693896e-16 -0.9238791054556431 -0.3826844633669895
vn -2.220289070351371e-16 0.9999293029889219 -0.011890711672937463
vn 2.220446049250313e-16 -1 -1.2246467991473532e-16
vn -2.2203761979494898e-16 0.9999685417707641 0.007931927183973075
usemtl m_1894836a-aa46-36b6-ac32-51d4bef19ab3
f 18/1/1 8/2/1 16/3/1 15/4/1
f 3/5/2 19/6/2 9/7/2
f 10/8/3 4/9/3 5/10/3
f 19/11/4 3/12/4 4/13/4 10/14/4
f 7/15/5 6/16/5 11/17/5 18/18/5
f 18/19/6 11/20/6 8/21/6
f 12/22/7 5/23/7 4/24/7 17/25/7
f 8/26/8 13/27/8 17/28/8 16/29/8
f 17/30/9 13/31/9 12/32/9
f 7/33/10 2/34/10 3/35/10 9/36/10
f 7/37/11 9/38/11 6/39/11
f 12/40/12 11/41/12 6/42/12 5/43/12
f 16/44/13 3/45/13 2/46/13 15/47/13
f 17/48/14 4/49/14 3/50/14 16/51/14
f 7/52/15 18/53/15 15/54/15 2/55/15
f 1/56/16 14/57/16 15/58/16 2/59/16
f 21/60/17 20/61/17 2/62/17 15/63/17