# Made in Blockbench 5.0.7
mtllib 2x2_arch_middle.mtl

o mesh
v 0 0.9233417510986328 0.5277919769287112
v 0 1 0.40193873643875155
v 0 0.9234421253204346 1.0000000000000002
v 0 1 1.0000000000000002
v 0 0.7750682830810547 1.0000000000000002
v 0 0.7741711139678955 0.6491178274154665
v 0 0.5608813762664795 1.0000000000000002
v 0 0.5584213733673096 0.7583081722259524
v 0 0.27492570877075195 0.5535014867782595
v 0 0.00005924701690673828 0.7371612787246706
v 1.0000000000000002 0.00005924701690673828 0.7371612787246706
v 1.0000000000000002 0.27492570877075195 0.5535014867782595
v 0 0.28911256790161133 1.0000000000000002
v 0 0.28438353538513184 0.8511668443679812
v 0 0.002341747283935547 1.0000000000000002
v 0 0.001580953598022461 0.912387013435364
v 0 0.9232414960861206 0.05558443069458041
v 0 1 3.3306690738754696e-16
v 0 0.737027645111084 0.0002592802047732823
v 0 0.7725116014480591 3.3306690738754696e-16
v 0 0.7732740640640259 0.29823589324951205
v 0 0.5535014867782593 0.2749257087707523
v 1 0.5535014867782593 0.2749257087707522
v 0 0.0008200407028198242 0.8247740268707278
v 0 0.5559613704681396 0.5166164636611941
v 0 0.2796546220779419 0.7023339271545412
v 1.0000000000000002 0.9233417510986328 0.5277919769287112
v 1 1 0.40193873643875144
v 1.0000000000000002 1 1.0000000000000002
v 1.0000000000000002 0.7741711139678955 0.6491178274154665
v 1.0000000000000002 0.5608813762664795 1.0000000000000002
v 1.0000000000000002 0.5584213733673096 0.7583081722259524
v 1.0000000000000002 0.28911256790161133 1.0000000000000002
v 1.0000000000000002 0.28438353538513184 0.8511668443679812
v 1.0000000000000002 0.002341747283935547 1.0000000000000002
v 1.0000000000000002 0.001580953598022461 0.912387013435364
v 1 0.9232414960861206 0.0555844306945803
v 1 1 2.220446049250313e-16
v 1 0.7725116014480591 2.220446049250313e-16
v 1 0.7732740640640259 0.29823589324951194
v 1.0000000000000002 0.0008200407028198242 0.8247740268707278
v 1.0000000000000002 0.5559613704681396 0.5166164636611941
v 1.0000000000000002 0.2796546220779419 0.7023339271545412
v 1 0.7372008562088013 2.220446049250313e-16
v 1.0000000000000002 0.9234421253204346 1.0000000000000002
v 1.0000000000000002 0.7750682830810547 1.0000000000000002
vt 0.5277919769287109 0.9233417510986327
vt 1 0.9234421253204345
vt 0.40193873643875144 1
vt 0.40193873643875144 1
vt 1 0.9234421253204345
vt 1 1
vt 0.6491178274154665 0.7741711139678955
vt 1 0.7750682830810547
vt 0.5277919769287109 0.9233417510986327
vt 0.5277919769287109 0.9233417510986327
vt 1 0.7750682830810547
vt 1 0.9234421253204345
vt 0.6491178274154665 0.7741711139678955
vt 1 0.5608813762664795
vt 1 0.7750682830810547
vt 0.7583081722259524 0.5584213733673096
vt 1 0.5608813762664795
vt 0.6491178274154665 0.7741711139678955
vt 1.0000086025386428 0.00005924701690651624
vt 1.0000086025386428 0.27492570877075173
vt 0.0000086025386426547 0.00005924701690651624
vt 0.0000086025386426547 0.00005924701690651624
vt 1.0000086025386428 0.27492570877075173
vt 0.0000086025386426547 0.27492570877075173
vt 0.851166844367981 0.28438353538513184
vt 1 0.28911256790161133
vt 0.7583081722259524 0.5584213733673096
vt 0.7583081722259524 0.5584213733673096
vt 1 0.28911256790161133
vt 1 0.5608813762664795
vt 0.851166844367981 0.28438353538513184
vt 1 0.002341747283935769
vt 1 0.28911256790161133
vt 0.9123870134353638 0.001580953598022461
vt 1 0.002341747283935769
vt 0.851166844367981 0.28438353538513184
vt 0.0555844306945803 0.9232414960861204
vt 0.5277919769287109 0.9233417510986327
vt 0.40193873643875144 1
vt 2.220446049250313e-16 1
vt 0.0555844306945803 0.9232414960861204
vt 0.40193873643875144 1
vt 0.00025928020477317126 0.737027645111084
vt 0.29823589324951194 0.7732740640640258
vt 2.220446049250313e-16 0.7725116014480591
vt 0.29823589324951194 0.7732740640640258
vt 0.0555844306945803 0.9232414960861204
vt 2.220446049250313e-16 0.7725116014480591
vt 0.0000086025386426547 0.27492570877075173
vt 1.0000086025386428 0.553501486778259
vt 0.0000086025386429045 0.553501486778259
vt 1.0000086025386428 0.27492570877075173
vt 1.0000086025386428 0.553501486778259
vt 0.0000086025386426547 0.27492570877075173
vt 0.0000086025386429045 0.553501486778259
vt 1.0000086025386428 0.553501486778259
vt 0.0000086025386429045 0.737200856208801
vt 0.0000086025386429045 0.737200856208801
vt 1.0000086025386428 0.553501486778259
vt 1.0000086025386428 0.7370276451110839
vt 2.220446049250313e-16 0.7725116014480591
vt 0.0555844306945803 0.9232414960861204
vt 2.220446049250313e-16 1
vt 0.5166164636611941 0.5559613704681396
vt 0.2749257087707522 0.5535014867782593
vt 0.702333927154541 0.2796546220779419
vt 0.702333927154541 0.2796546220779419
vt 0.2749257087707522 0.5535014867782593
vt 0.5535014867782593 0.27492570877075195
vt 0.702333927154541 0.2796546220779419
vt 0.5535014867782593 0.27492570877075195
vt 0.8247740268707275 0.0008200407028200463
vt 0.8247740268707275 0.0008200407028200463
vt 0.5535014867782593 0.27492570877075195
vt 0.7371612787246706 0.00005924701690651624
vt 0.8247740268707275 0.0008200407028200463
vt 0.9123870134353638 0.001580953598022461
vt 0.702333927154541 0.2796546220779419
vt 0.702333927154541 0.2796546220779419
vt 0.9123870134353638 0.001580953598022461
vt 0.851166844367981 0.28438353538513184
vt 0.702333927154541 0.2796546220779419
vt 0.851166844367981 0.28438353538513184
vt 0.5166164636611941 0.5559613704681396
vt 0.5166164636611941 0.5559613704681396
vt 0.851166844367981 0.28438353538513184
vt 0.7583081722259524 0.5584213733673096
vt 0.5166164636611941 0.5559613704681396
vt 0.7583081722259524 0.5584213733673096
vt 0.29823589324951194 0.7732740640640258
vt 0.29823589324951194 0.7732740640640258
vt 0.7583081722259524 0.5584213733673096
vt 0.6491178274154665 0.7741711139678955
vt 0.29823589324951194 0.7732740640640258
vt 0.6491178274154665 0.7741711139678955
vt 0.0555844306945803 0.9232414960861204
vt 0.0555844306945803 0.9232414960861204
vt 0.6491178274154665 0.7741711139678955
vt 0.5277919769287109 0.9233417510986327
vt 0.5166164636611941 0.5559613704681396
vt 0.29823589324951194 0.7732740640640258
vt 0.2749257087707522 0.5535014867782593
vt 0.29823589324951194 0.7732740640640258
vt 0.00025928020477317126 0.737027645111084
vt 0.2749257087707522 0.5535014867782593
vt 0 0.9233828783035279
vt 0.47220802307128934 0.9232825040817263
vt 0.598061263561249 0.9999407529830935
vt 0 0.9233828783035279
vt 0.598061263561249 0.9999407529830935
vt 0 0.9999407529830935
vt 0 0.7750090360641481
vt 0.35088217258453375 0.7741118669509889
vt 0.47220802307128934 0.9232825040817263
vt 0 0.5608221292495729
vt 0.24169182777404813 0.5583621263504029
vt 0.35088217258453375 0.7741118669509889
vt 0 0.2890533208847046
vt 0.14883315563201932 0.2843242883682253
vt 0.24169182777404813 0.5583621263504029
vt 0 0.2890533208847046
vt 0.24169182777404813 0.5583621263504029
vt 0 0.5608221292495729
vt 0 0.0022825002670288086
vt 0.14883315563201932 0.2843242883682253
vt 0 0.2890533208847046
vt 0 0.0022825002670288086
vt 0.08761298656463629 0.0015217065811155006
vt 0.14883315563201932 0.2843242883682253
vt 0.47220802307128934 0.9232825040817263
vt 0.9444155693054199 0.923182249069214
vt 0.598061263561249 0.9999407529830935
vt 0.9444155693054199 0.923182249069214
vt 0.7017641067504883 0.7732148170471193
vt 1.0000000000000002 0.7724523544311525
vt 0.7250742912292483 0.5534422397613527
vt 0.4833835363388062 0.555902123451233
vt 0.29766607284545904 0.27959537506103516
vt 0.7250742912292483 0.5534422397613527
vt 0.29766607284545904 0.27959537506103516
vt 0.4464985132217408 0.2748664617538452
vt 0.4464985132217408 0.2748664617538452
vt 0.29766607284545904 0.27959537506103516
vt 0.17522597312927252 0.0007607936859130859
vt 0.4464985132217408 0.2748664617538452
vt 0.17522597312927252 0.0007607936859130859
vt 0.26283872127532987 0
vt 0.08761298656463629 0.0015217065811155006
vt 0.17522597312927252 0.0007607936859130859
vt 0.29766607284545904 0.27959537506103516
vt 0.08761298656463629 0.0015217065811155006
vt 0.29766607284545904 0.27959537506103516
vt 0.14883315563201932 0.2843242883682253
vt 0.14883315563201932 0.2843242883682253
vt 0.29766607284545904 0.27959537506103516
vt 0.4833835363388062 0.555902123451233
vt 0.14883315563201932 0.2843242883682253
vt 0.4833835363388062 0.555902123451233
vt 0.24169182777404813 0.5583621263504029
vt 0.24169182777404813 0.5583621263504029
vt 0.4833835363388062 0.555902123451233
vt 0.7017641067504883 0.7732148170471193
vt 0.24169182777404813 0.5583621263504029
vt 0.7017641067504883 0.7732148170471193
vt 0.35088217258453375 0.7741118669509889
vt 0.35088217258453375 0.7741118669509889
vt 0.7017641067504883 0.7732148170471193
vt 0.9444155693054199 0.923182249069214
vt 0.35088217258453375 0.7741118669509889
vt 0.9444155693054199 0.923182249069214
vt 0.47220802307128934 0.9232825040817263
vt 0.7017641067504883 0.7732148170471193
vt 0.4833835363388062 0.555902123451233
vt 0.7250742912292483 0.5534422397613527
vt 1.0000000000000002 0.7371416091918946
vt 0.7017641067504883 0.7732148170471193
vt 0.7250742912292483 0.5534422397613527
vt 0.9444155693054199 0.923182249069214
vt 1.0000000000000002 0.9999407529830935
vt 0.598061263561249 0.9999407529830935
vt 0.9444155693054199 0.923182249069214
vt 1.0000000000000002 0.7724523544311525
vt 1.0000000000000002 0.9999407529830935
vt 0.7017641067504883 0.7732148170471193
vt 1.0000000000000002 0.7371416091918946
vt 1.0000000000000002 0.7724523544311525
vt 1.0000086025386428 0.772511601448059
vt 1.0000086025386428 1
vt 0.0000086025386429045 1
vt 0.0000086025386429045 0.772511601448059
vt 0.0000086025386429045 0.737200856208801
vt 1.0000086025386428 0.7370276451110839
vt 1.0000086025386428 0.772511601448059
vt 0.0000086025386429045 0.772511601448059
vt 0 0.0269375000000025
vt 0 0.6250000000000026
vt 1 0.6250000000000026
vt 1 0.0269375000000025
vt 1 0.5980625
vt 0 0.5980625
vt 0 1
vt 1 1
vt 0 0.7750090360641481
vt 0.47220802307128934 0.9232825040817263
vt 0 0.9233828783035279
vt 0 0.5608221292495729
vt 0.35088217258453375 0.7741118669509889
vt 0 0.7750090360641481
vt -2.220446049250313e-16 1
vt -2.220446049250313e-16 0.9234421253204345
vt 1 0.9234421253204345
vt 1 1
vt 1 0.9234421253204345
vt -2.220446049250313e-16 0.9234421253204345
vt -2.220446049250313e-16 0.7750682830810546
vt 1 0.7750682830810546
vt 1 0.7750682830810546
vt -2.220446049250313e-16 0.7750682830810546
vt -2.220446049250313e-16 0.5608813762664795
vt 1 0.5608813762664795
vt 1 0.5608813762664795
vt -2.220446049250313e-16 0.5608813762664795
vt -2.220446049250313e-16 0.2891125679016111
vt 1 0.2891125679016111
vt 1 0.2891125679016111
vt -2.220446049250313e-16 0.2891125679016111
vt -2.220446049250313e-16 0.002341747283935325
vt 1 0.002341747283935325
vt 1 1
vt -4.440892098500626e-16 1
vt -4.440892098500626e-16 0.9123870126746138
vt 1 0.9123870126746138
vt 1 0.9123870126746138
vt -4.440892098500626e-16 0.9123870126746138
vt -4.440892098500626e-16 0.8247740253491086
vt 1 0.8247740253491086
vt 1 0.8247740253491086
vt -4.440892098500626e-16 0.8247740253491086
vt -4.440892098500626e-16 0.7371612764423018
vt 1 0.7371612764423018
vn -1 0 1.2246467991473532e-16
vn -1 0 1.2246467991473532e-16
vn -1 0 1.2246467991473532e-16
vn -1 0 1.2246467991473532e-16
vn -1 0 1.2246467991473532e-16
vn -1 0 1.2246467991473532e-16
vn -1.0182567808236061e-16 -0.5555700111781445 -0.8314697605322254
vn -1.0182567808236061e-16 -0.5555700111781445 -0.8314697605322254
vn -1 0 1.2246467991473532e-16
vn -1 0 1.2246467991473532e-16
vn -1 0 1.2246467991473532e-16
vn -1 0 1.2246467991473532e-16
vn -1 0 1.2246467991473532e-16
vn -1 0 1.2246467991473532e-16
vn -1 0 1.2246467991473532e-16
vn -1 0 1.2246467991473532e-16
vn -8.659560562354934e-17 -0.7071067811865476 -0.7071067811865476
vn -8.659560562354934e-17 -0.7071067811865476 -0.7071067811865476
vn -6.80377010070733e-17 -0.831469774620307 -0.5555699900938279
vn -2.8535326364766975e-8 -0.8314697266742647 -0.5555700618501893
vn -1 0 1.2246467991473532e-16
vn -1 0 1.2246467991473532e-16
vn -1 0 1.2246467991473532e-16
vn -1 0 1.2246467991473532e-16
vn -1 0 1.2246467991473532e-16
vn -1 0 1.2246467991473532e-16
vn -1 0 1.2246467991473532e-16
vn -1 0 1.2246467991473532e-16
vn -1 0 1.2246467991473532e-16
vn -1 0 1.2246467991473532e-16
vn -1 0 1.2246467991473532e-16
vn -1 0 1.2246467991473532e-16
vn -1 0 1.2246467991473532e-16
vn -1 0 1.2246467991473532e-16
vn -1 0 1.2246467991473532e-16
vn 1 0 -1.2246467991473532e-16
vn 1 0 -1.2246467991473532e-16
vn 1 0 -1.2246467991473532e-16
vn 1 0 -1.2246467991473532e-16
vn 1 0 -1.2246467991473532e-16
vn 1 0 -1.2246467991473532e-16
vn 1 0 -1.2246467991473532e-16
vn 1 0 -1.2246467991473532e-16
vn 1 0 -1.2246467991473532e-16
vn 1 0 -1.2246467991473532e-16
vn 1 0 -1.2246467991473532e-16
vn 1 0 -1.2246467991473532e-16
vn 1 0 -1.2246467991473532e-16
vn 1 0 -1.2246467991473532e-16
vn 1 0 -1.2246467991473532e-16
vn 1 0 -1.2246467991473532e-16
vn 1 0 -1.2246467991473532e-16
vn 1 0 -1.2246467991473532e-16
vn 1 0 -1.2246467991473532e-16
vn 1 0 -1.2246467991473532e-16
vn 1 0 -1.2246467991473532e-16
vn 1 0 -1.2246467991473532e-16
vn 1 0 -1.2246467991473532e-16
vn 1 0 -1.2246467991473532e-16
vn 1 0 -1.2246467991473532e-16
vn 1 0 -1.2246467991473532e-16
vn 1 0 -1.2246467991473532e-16
vn -1.2246467991473532e-16 0 -1
vn -0.0002580076602328423 -0.007306774707939946 -0.9999732718805113
vn 0 1 0
vn 0 1 0
vn 1 0 -1.2246467991473532e-16
vn 1 0 -1.2246467991473532e-16
vn 1.2246467991473532e-16 0 1
vn 1.2246467991473532e-16 0 1
vn 1.2246467991473532e-16 0 1
vn 1.2246467991473532e-16 0 1
vn 1.2246467991473532e-16 0 1
vn 1.0633907865690919e-18 -0.9999622999198253 0.008683244730721266
vn 1.063557397441765e-18 -0.9999622881050646 0.0086846052117415
vn 1.0633936801320682e-18 -0.9999622997146519 0.00868326835845604
usemtl m_ccadb9e9-6541-9820-271e-f77554d3a76b
f 1/1/1 3/2/1 2/3/1
f 2/4/2 3/5/2 4/6/2
f 6/7/3 5/8/3 1/9/3
f 1/10/4 5/11/4 3/12/4
f 6/13/5 7/14/5 5/15/5
f 8/16/6 7/17/6 6/18/6
f 10/19/7 9/20/7 11/21/7
f 11/22/8 9/23/8 12/24/8
f 14/25/9 13/26/9 8/27/9
f 8/28/10 13/29/10 7/30/10
f 14/31/11 15/32/11 13/33/11
f 16/34/12 15/35/12 14/36/12
f 17/37/13 1/38/13 2/39/13
f 18/40/14 17/41/14 2/42/14
f 19/43/15 21/44/15 20/45/15
f 21/46/16 17/47/16 20/48/16
f 12/49/17 22/50/17 23/51/17
f 9/52/18 22/53/18 12/54/18
f 23/55/19 22/56/19 44/57/19
f 44/58/20 22/59/20 19/60/20
f 20/61/21 17/62/21 18/63/21
f 25/64/22 22/65/22 26/66/22
f 26/67/23 22/68/23 9/69/23
f 26/70/24 9/71/24 24/72/24
f 24/73/25 9/74/25 10/75/25
f 24/76/26 16/77/26 26/78/26
f 26/79/27 16/80/27 14/81/27
f 26/82/28 14/83/28 25/84/28
f 25/85/29 14/86/29 8/87/29
f 25/88/30 8/89/30 21/90/30
f 21/91/31 8/92/31 6/93/31
f 21/94/32 6/95/32 17/96/32
f 17/97/33 6/98/33 1/99/33
f 25/100/34 21/101/34 22/102/34
f 21/103/35 19/104/35 22/105/35
f 45/106/36 27/107/36 28/108/36
f 45/109/37 28/110/37 29/111/37
f 46/112/38 30/113/38 27/114/38
f 31/115/39 32/116/39 30/117/39
f 33/118/40 34/119/40 32/120/40
f 33/121/41 32/122/41 31/123/41
f 35/124/42 34/125/42 33/126/42
f 35/127/43 36/128/43 34/129/43
f 27/130/44 37/131/44 28/132/44
f 37/133/45 40/134/45 39/135/45
f 23/136/46 42/137/46 43/138/46
f 23/139/47 43/140/47 12/141/47
f 12/142/48 43/143/48 41/144/48
f 12/145/49 41/146/49 11/147/49
f 36/148/50 41/149/50 43/150/50
f 36/151/51 43/152/51 34/153/51
f 34/154/52 43/155/52 42/156/52
f 34/157/53 42/158/53 32/159/53
f 32/160/54 42/161/54 40/162/54
f 32/163/55 40/164/55 30/165/55
f 30/166/56 40/167/56 37/168/56
f 30/169/57 37/170/57 27/171/57
f 40/172/58 42/173/58 23/174/58
f 44/175/59 40/176/59 23/177/59
f 37/178/60 38/179/60 28/180/60
f 37/181/61 39/182/61 38/183/61
f 40/184/62 44/185/62 39/186/62
f 20/187/63 18/188/63 38/189/63 39/190/63
f 44/191/64 19/192/64 20/193/64 39/194/64
f 29/195/65 28/196/65 2/197/65 4/198/65
f 2/199/66 28/200/66 38/201/66 18/202/66
f 46/203/67 27/204/67 45/205/67
f 31/206/68 30/207/68 46/208/68
f 4/209/69 3/210/69 45/211/69 29/212/69
f 45/213/70 3/214/70 5/215/70 46/216/70
f 46/217/71 5/218/71 7/219/71 31/220/71
f 31/221/72 7/222/72 13/223/72 33/224/72
f 33/225/73 13/226/73 15/227/73 35/228/73
f 35/229/74 15/230/74 16/231/74 36/232/74
f 36/233/75 16/234/75 24/235/75 41/236/75
f 41/237/76 24/238/76 10/239/76 11/240/76