# Made in Blockbench 5.0.7
mtllib osgiliath_quarter_dome.mtl

o sphere
v 0 1 1
v 0.5 0.8660254037844386 0.8660254037844386
v 0.8660254037844387 0.5000000000000001 0.7679491924311226
v 1 0 0.7320508075688772
v 0.3660254037844386 0.8660254037844386 0.6339745962155615
v 0.6339745962155614 0.5000000000000001 0.3660254037844386
v 0.7320508075688774 0 0.26794919243112275
v 0.13397459621556138 0.8660254037844386 0.5000000000000002
v 0.2320508075688776 0.5000000000000001 0.13397459621556151
v 0.26794919243112303 0 1.6653345369377348e-16
v 0.8660254037844387 0.5000000000000001 1
v 0.5 0.8660254037844386 1
v 1 0 1
v 1.3877787807814457e-16 0.5000000000000001 0.1339745962155614
v 1.3877787807814457e-16 0.8660254037844386 0.5000000000000001
v 3.608224830031759e-16 0 0
vt 0.004487499999999978 0.875
vt 0.004487500000000005 0.6161749999999999
vt 0.133975 0.6161749999999999
vt 0.12948750000000003 0.625
vt 2.7755575615628914e-17 0.625
vt 0 0.3661749999999999
vt 0.178525 0.3661749999999999
vt 0.25 0.6161749999999999
vt 0.38397499999999996 0.6161749999999999
vt 0.3169875 0.875
vt 0.2365375 0.625
vt 0.1875 0.3661749999999999
vt 0.48205 0.3661749999999999
vt 0.4330125 0.625
vt 0.625 0.616175
vt 0.758975 0.616175
vt 0.6294875 0.9375
vt 0.5490375000000001 0.625
vt 0.5 0.3661749999999999
vt 0.79455 0.3661749999999999
vt 0.7455125 0.625
vt 0.17852500000000004 0.3838250000000001
vt 0 0.3838250000000001
vt 0 0
vt 0.19647500000000007 0
vt 0.75 0.3838250000000001
vt 0.51795 0.3838250000000001
vt 0.5 0
vt 0.76795 0
vt 0.5 0.3838250000000001
vt 0.20545000000000002 0.3838250000000001
vt 0.25 0
vt 0.51795 0
vt 0.821475 0.3661749999999999
vt 1 0.3661749999999999
vt 1 0.625
vt 0.9375 0.625
vt 0.9330125 0.6161749999999999
vt 1 0.6161749999999999
vt 1 0.875
vt 0.803525 0
vt 1 0
vt 1 0.3838250000000001
vt 0.8214750000000001 0.3838250000000001
vn 0.2588190451025209 0.9659258262890684 0
vn 0.7071067811865474 0.7071067811865478 0
vn 0.22414386804201342 0.9659258262890683 -0.12940952255126062
vn 0.6123724356957944 0.7071067811865478 -0.35355339059327384
vn 0.12940952255126048 0.9659258262890683 -0.22414386804201356
vn 0.35355339059327356 0.7071067811865479 -0.6123724356957942
vn 0.9659258262890683 0.2588190451025206 0
vn 0.48296291314453416 0.2588190451025207 -0.8365163037378079
vn 0.8365163037378078 0.2588190451025205 -0.4829629131445343
vn 3.3830790660311293e-16 0.7071067811865478 -0.7071067811865474
vn 2.144786184852409e-16 0.9659258262890683 -0.25881904510252096
vn 6.003338259930746e-16 0.2588190451025208 -0.9659258262890683
usemtl m_7cf1d2fa-f4f9-cbb4-79ae-d0f7e368bcbc
f 1/1/1 12/2/1 2/3/1
f 2/4/2 12/5/2 11/6/2 3/7/2
f 2/8/3 5/9/3 1/10/3
f 2/11/4 3/12/4 6/13/4 5/14/4
f 5/15/5 8/16/5 1/17/5
f 5/18/6 6/19/6 9/20/6 8/21/6
f 3/22/7 11/23/7 13/24/7 4/25/7
f 9/26/8 6/27/8 7/28/8 10/29/8
f 6/30/9 3/31/9 4/32/9 7/33/9
f 9/34/10 14/35/10 15/36/10 8/37/10
f 8/38/11 15/39/11 1/40/11
f 10/41/12 16/42/12 14/43/12 9/44/12